<svg xmlns="http://www.w3.org/2000/svg" viewBox="0 0 1126.08 256.78"><defs><style>.cls-1{isolation:isolate;}.cls-2{fill:#fff;}.cls-3{font-size:12px;fill:#1d1d1b;font-family:MyriadPro-Regular, Myriad Pro;}.cls-4{letter-spacing:-0.01em;}.cls-5{letter-spacing:-0.01em;}</style></defs><title>logo_white</title><g id="Rechteck_1" data-name="Rechteck 1" class="cls-1"><g id="Rechteck_1-2" data-name="Rechteck 1"><path class="cls-2" d="M122.77,167.86c68.12,0,93.31-147.94-40.52-147.94H5.76V276.24H61.44V168l66.72,108.24h63.36S122,167.86,122.77,167.86ZM92.64,131.28c.6.12-31.2,0-31.2,0V68.64H92.88C136.82,68.64,131.59,131.4,92.64,131.28Z" transform="translate(-5.76 -19.88)"/></g><text class="cls-3" transform="translate(549 36.84)"><tspan class="cls-4">L</tspan><tspan x="5.5" y="0">o</tspan><tspan class="cls-5" x="12.08" y="0">r</tspan><tspan x="15.89" y="0">em ipsum</tspan></text></g><g id="Rechteck_2" data-name="Rechteck 2" class="cls-1"><g id="Rechteck_2-2" data-name="Rechteck 2"><polygon class="cls-2" points="658.32 48.76 658.32 0.04 503.28 0.04 503.28 256.36 658.32 256.36 658.32 201.88 566.88 201.88 566.88 156.52 658.32 156.52 658.32 111.4 566.88 111.4 566.88 48.76 658.32 48.76"/></g></g><g id="Rechteck_3" data-name="Rechteck 3" class="cls-1"><g id="Rechteck_3-2" data-name="Rechteck 3"><path class="cls-2" d="M791.76,19.92H718.32V276.24h55.92L774,176.4s63.18.08,63.36,0C888.48,176.48,949.2,19.92,791.76,19.92Zm19,110.88c-8.88-.12-36.48.24-36.48.24V68.4s16.92,0,36.33.24C847,68.64,844.76,131.4,810.72,130.8Z" transform="translate(-5.76 -19.88)"/></g></g><g id="Rechteck_4" data-name="Rechteck 4" class="cls-1"><g id="Rechteck_4-2" data-name="Rechteck 4"><path class="cls-2" d="M1030.08,19.92h-55.2L874.8,276.24H929l19.44-54.48h108.24l19,54.48h56.16ZM970.8,176.4,1003,68.4l31.44,108Z" transform="translate(-5.76 -19.88)"/></g></g><g id="Ellipse_1" data-name="Ellipse 1" class="cls-1"><g id="Ellipse_1-2" data-name="Ellipse 1"><path class="cls-2" d="M204.68,132.74h53.38c6.91-27.92,29.64-50,58.67-57.15V20.53C258.1,30.43,212.32,75.88,204.68,132.74Zm156,92v51.92c57.46-7.45,103.2-47.54,114.6-100.91H413.94C405.51,199.17,385.65,217.52,360.71,224.74Zm55.44-92h60.78c-7.82-58.2-55.6-104.45-116.22-112.86V76.45C388.18,84.41,409.49,105.87,416.15,132.74Zm-155.89,43H206.34c11.21,51.79,55.18,91.08,110.39,100.17V225.61C290.28,219.09,269.05,200.18,260.26,175.75Z" transform="translate(-5.76 -19.88)"/></g></g></svg>