<svg id="Layer_1" data-name="Layer 1" xmlns="http://www.w3.org/2000/svg" viewBox="0 0 1126.08 256.78"><defs><style>.cls-1{fill:#fff;}.cls-2,.cls-3,.cls-4{isolation:isolate;}.cls-3,.cls-4{font-size:12px;fill:#1d1d1b;font-family:MyriadArabic-Regular, Myriad Arabic;}.cls-3{letter-spacing:-0.01em;}</style></defs><title>logowhiteArtboard 1</title><g id="Rechteck_1" data-name="Rechteck 1"><g id="Rechteck_1-2" data-name="Rechteck 1-2"><path class="cls-1" d="M117,148C185.13,148,210.32,0,76.49,0H0V256.36H55.68V148.12L122.4,256.36h63.36S116.24,148,117,148ZM86.88,111.4c.6.12-31.2,0-31.2,0V48.76H87.12C131.06,48.76,125.83,111.52,86.88,111.4Z"/></g><g class="cls-2"><text class="cls-3" transform="translate(549 36.84)">L</text><text class="cls-4" transform="translate(554.5 36.84)">o</text><text class="cls-3" transform="translate(561.08 36.84)">r</text><text class="cls-4" transform="translate(564.89 36.84)">em ipsum</text></g></g><g id="Rechteck_2" data-name="Rechteck 2"><g id="Rechteck_2-2" data-name="Rechteck 2-2"><polygon class="cls-1" points="658.32 48.76 658.32 0.04 503.28 0.04 503.28 256.36 658.32 256.36 658.32 201.88 566.88 201.88 566.88 156.52 658.32 156.52 658.32 111.4 566.88 111.4 566.88 48.76 658.32 48.76"/></g></g><g id="Rechteck_3" data-name="Rechteck 3"><g id="Rechteck_3-2" data-name="Rechteck 3-2"><path class="cls-1" d="M786,0H712.56V256.36h55.92l-.24-99.84s63.18.08,63.36,0C882.72,156.6,943.44,0,786,0Zm19,110.88c-8.88-.12-36.48.24-36.48.24V48.52s16.92,0,36.33.24c36.39,0,34.15,62.76.11,62.16Z"/></g></g><g id="Rechteck_4" data-name="Rechteck 4"><g id="Rechteck_4-2" data-name="Rechteck 4-2"><path class="cls-1" d="M1024.32,0h-55.2L869,256.36h54.2l19.44-54.48h108.24l19,54.48h56.16ZM965,156.52l32.2-108,31.44,108Z"/></g></g><g id="Ellipse_1" data-name="Ellipse 1"><g id="Ellipse_1-2" data-name="Ellipse 1-2"><path class="cls-1" d="M198.92,112.86H252.3c6.91-27.92,29.64-50,58.67-57.15V.65C252.34,10.55,206.56,56,198.92,112.86Zm156,92v51.92c57.46-7.45,103.2-47.54,114.6-100.91H408.18c-8.43,23.42-28.29,41.77-53.23,49Zm55.44-92h60.78C463.32,54.66,415.54,8.41,354.92,0V56.57c27.5,8,48.81,29.42,55.47,56.29Zm-155.89,43H200.58C211.79,207.65,255.76,246.94,311,256v-50.3c-26.45-6.52-47.68-25.43-56.47-49.86Z"/></g></g></svg>